PathFileType	4	(X/Y/Z)	/Users/itak/Documents/Research/Walk-IL/dataset/trc/00315_00010.trc
DataRate	CameraRate	NumFrames	NumMarkers	Units	OrigDataRate	OrigDataStartFrame	OrigNumFrames
100.000000	100.000000	4	53	mm	100.000000	201	537
Frame#	Time	RPSI			LPSI			L3			STRN			T10			C7			CLAV			RBAK			LBAK			LSHO			LUPA			LAEL			LAOL			LWTS			LWPS			LFRA			LIFD			LHPS			LHTS			RSHO			RUPA			RAEL			RAOL			RWTS			RWPS			RFRA			RIFD			RHTS			RHPS			RBHD			LFHD			RFHD			LBHD			LHIP			RHIP			RASI			LASI			LKNE			LTHI			LANK			LTIP			LTOE			LMT1			LMT5			LHEE			RKNE			RTHI			RANK			RTIP			RTOE			RMT1			RMT5			RHEE			
		X1	Y1	Z1	X2	Y2	Z2	X3	Y3	Z3	X4	Y4	Z4	X5	Y5	Z5	X6	Y6	Z6	X7	Y7	Z7	X8	Y8	Z8	X9	Y9	Z9	X10	Y10	Z10	X11	Y11	Z11	X12	Y12	Z12	X13	Y13	Z13	X14	Y14	Z14	X15	Y15	Z15	X16	Y16	Z16	X17	Y17	Z17	X18	Y18	Z18	X19	Y19	Z19	X20	Y20	Z20	X21	Y21	Z21	X22	Y22	Z22	X23	Y23	Z23	X24	Y24	Z24	X25	Y25	Z25	X26	Y26	Z26	X27	Y27	Z27	X28	Y28	Z28	X29	Y29	Z29	X30	Y30	Z30	X31	Y31	Z31	X32	Y32	Z32	X33	Y33	Z33	X34	Y34	Z34	X35	Y35	Z35	X36	Y36	Z36	X37	Y37	Z37	X38	Y38	Z38	X39	Y39	Z39	X40	Y40	Z40	X41	Y41	Z41	X42	Y42	Z42	X43	Y43	Z43	X44	Y44	Z44	X45	Y45	Z45	X46	Y46	Z46	X47	Y47	Z47	X48	Y48	Z48	X49	Y49	Z49	X50	Y50	Z50	X51	Y51	Z51	X52	Y52	Z52	X53	Y53	Z53	

202	2.01	-605.874755859375	997.186279296875	-549.9631958007812	-542.360107421875	985.1762084960938	-713.3113403320312	-552.8038330078125	1061.408081054688	-627.5322265625	-312.6533813476562	1235.201538085938	-545.8754272460938	-563.9440307617188	1175.924926757812	-632.1964721679688	-515.0216064453125	1421.138793945312	-628.2664794921875	-369.905029296875	1337.271606445312	-568.9521484375	-593.43994140625	1283.220092773438	-576.2572021484375	-492.4425354003906	1385.98486328125	-732.4257202148438	-389.5812683105469	1393.57958984375	-749.694091796875	-387.9183959960938	1279.281372070312	-830.5137939453125	-380.7386474609375	1077.906005859375	-855.0283813476562	-458.6967163085938	1062.016845703125	-816.8125610351562	-317.3558959960938	852.8367309570312	-801.6405639648438	-333.1709594726562	844.6793212890625	-872.1795654296875	-365.7167358398438	973.6915893554688	-867.5882568359375	-308.8316345214844	667.8733520507812	-814.5699462890625	-328.9349060058594	756.1591796875	-873.4166870117188	-289.6480712890625	755.903076171875	-820.2755737304688	-507.8599243164062	1393.051879882812	-457.2183837890625	-531.489501953125	1331.919189453125	-396.6051940917969	-534.4058837890625	1067.007568359375	-335.24365234375	-542.1400756835938	1054.375854492188	-429.6009826660156	-426.2528686523438	842.7276000976562	-335.0489196777344	-494.6361999511719	841.9236450195312	-285.1199035644531	-513.0729370117188	1002.638671875	-313.984130859375	-419.3947448730469	655.7297973632812	-318.9129943847656	-407.875	729.42236328125	-300.9951171875	-473.3013000488281	730.818115234375	-274.2214965820312	-521.3513793945312	1577.36083984375	-551.0462646484375	-312.7404174804688	1614.486694335938	-562.4197387695312	-360.1476745605469	1603.0517578125	-483.403564453125	-445.5063781738281	1585.769287109375	-675.6582641601562	-442.9348449707031	936.9736938476562	-775.8504638671875	-549.4655151367188	944.8952026367188	-417.2936096191406	-412.945556640625	945.5310668945312	-440.9394226074219	-332.9724426269531	943.63525390625	-679.2928466796875	-244.1228942871094	502.4837951660156	-696.7986450195312	-292.4232788085938	635.05859375	-731.5877685546875	-453.6004333496094	125.3075332641602	-829.2083740234375	-336.7551879882812	305.5831604003906	-771.3553466796875	-311.9653015136719	37.57566070556641	-697.97802734375	-391.7124938964844	47.91567611694336	-693.6116943359375	-350.4677429199219	70.17731475830078	-794.7822875976562	-519.29150390625	137.3646392822266	-794.3824462890625	-468.6813354492188	469.5798950195312	-494.8369140625	-476.0365905761719	726.98876953125	-418.151123046875	-542.4942626953125	40.6293830871582	-597.5326538085938	-456.8591918945312	347.4807739257812	-526.8649291992188	-342.1754760742188	42.40538787841797	-633.395263671875	-396.3305969238281	41.76085662841797	-677.249755859375	-440.6576538085938	33.49863052368164	-567.6187744140625	-589.0780029296875	38.63432312011719	-651.8173828125	
203	2.02	-598.5960083007812	997.312255859375	-549.6146850585938	-532.3355102539062	985.4885864257812	-711.9138793945312	-544.5109252929688	1061.405883789062	-625.7022094726562	-305.6795654296875	1235.329345703125	-541.123291015625	-555.964111328125	1175.99560546875	-629.9699096679688	-506.95654296875	1421.273193359375	-625.7305908203125	-362.6325378417969	1337.355590820312	-565.0830078125	-586.1275634765625	1283.648071289062	-574.2454833984375	-483.6268615722656	1385.891479492188	-729.5775146484375	-380.5953979492188	1393.356079101562	-746.2189331054688	-379.6577453613281	1279.1123046875	-827.0845336914062	-375.7128601074219	1077.669189453125	-851.4193115234375	-453.9570922851562	1063.088623046875	-813.1289672851562	-318.8331604003906	850.0943603515625	-798.8951416015625	-334.4725646972656	842.9681396484375	-869.5933837890625	-363.2308349609375	973.0326538085938	-864.385498046875	-317.1124877929688	664.8768310546875	-812.9284057617188	-333.4204406738281	754.3876953125	-871.3780517578125	-294.4231872558594	752.362548828125	-817.8346557617188	-501.26171875	1393.3740234375	-454.5389099121094	-524.9168701171875	1332.100952148438	-393.8755798339844	-523.4156494140625	1067.011474609375	-331.8242797851562	-532.1211547851562	1054.055297851562	-425.9115600585938	-410.0776672363281	844.6341552734375	-334.0174255371094	-477.0750427246094	842.4852294921875	-282.4083557128906	-500.1120300292969	1002.719665527344	-311.03271484375	-398.9917602539062	657.8768920898438	-317.8089294433594	-388.5438537597656	731.73046875	-300.3319091796875	-453.2232666015625	731.9324951171875	-271.8016357421875	-513.99462890625	1577.349975585938	-549.0576782226562	-305.3343811035156	1614.715698242188	-558.3104858398438	-353.5732421875	1603.385498046875	-479.7554321289062	-436.8571472167969	1585.631713867188	-672.8834838867188	-431.5471801757812	937.615234375	-772.7716674804688	-544.4378051757812	944.72216796875	-416.0540771484375	-407.4650268554688	945.4725952148438	-437.2268981933594	-323.5625610351562	944.1649169921875	-674.2846069335938	-232.0844421386719	504.4821166992188	-687.2625732421875	-280.241455078125	636.4436645507812	-724.0950317382812	-420.5648803710938	115.7841720581055	-819.6958618164062	-314.5289306640625	302.6117858886719	-761.879150390625	-277.4598999023438	38.32920074462891	-683.6293334960938	-357.97607421875	44.11967086791992	-681.2962646484375	-315.4550170898438	67.13010406494141	-781.7646484375	-487.8760375976562	124.8149032592773	-786.7640991210938	-467.3992919921875	469.2102661132812	-493.8854064941406	-472.5020141601562	726.2989501953125	-416.8545227050781	-542.5501708984375	40.79032135009766	-597.6989135742188	-455.9689331054688	347.1846923828125	-526.2791137695312	-342.1615905761719	42.35634994506836	-633.40625	-396.3002319335938	41.69737243652344	-677.3074951171875	-440.6425476074219	33.52064514160156	-567.688232421875	-589.0626220703125	38.82761001586914	-651.98046875	
204	2.03	-591.2145385742188	997.3126220703125	-549.2093505859375	-522.3115234375	985.6588134765625	-710.4452514648438	-536.218017578125	1061.286743164062	-623.8717041015625	-298.6839294433594	1235.277221679688	-536.3290405273438	-547.949951171875	1175.972534179688	-627.7412719726562	-498.7962646484375	1421.280517578125	-623.1554565429688	-355.3118591308594	1337.251220703125	-561.1653442382812	-578.74365234375	1283.947998046875	-572.2169189453125	-474.7001037597656	1385.673095703125	-726.6765747070312	-371.4854736328125	1392.987548828125	-742.652587890625	-371.3472595214844	1278.834350585938	-823.5914916992188	-370.8116760253906	1077.386596679688	-847.8065185546875	-449.2773132324219	1064.125854492188	-809.3804931640625	-320.2958068847656	847.5867919921875	-796.132080078125	-335.700927734375	841.4852905273438	-867.0018920898438	-360.7966918945312	972.4503173828125	-861.1770629882812	-325.0596618652344	662.4032592773438	-811.3317260742188	-337.6839599609375	752.9566650390625	-869.3359985351562	-299.0572814941406	749.2319946289062	-815.4072265625	-494.6141662597656	1393.583374023438	-451.8341979980469	-518.351806640625	1332.19873046875	-391.1311340332031	-512.6499633789062	1067.04248046875	-328.5615844726562	-522.339599609375	1053.681030273438	-422.3587646484375	-394.1365966796875	846.7781982421875	-333.0320129394531	-459.7142028808594	843.2579345703125	-279.7949523925781	-487.4839172363281	1002.890380859375	-308.1616821289062	-378.6142883300781	660.3758544921875	-316.753173828125	-369.3580017089844	734.39501953125	-299.7073669433594	-433.2293701171875	733.3580932617188	-269.4826354980469	-506.6076354980469	1577.184326171875	-547.1265869140625	-297.9180908203125	1614.813232421875	-554.1116333007812	-347.0401916503906	1603.595458984375	-476.0526428222656	-428.0943603515625	1585.318481445312	-670.0929565429688	-420.2281494140625	938.0806884765625	-769.640625	-539.2684326171875	944.45849609375	-414.8045959472656	-401.8646545410156	945.2921752929688	-433.546630859375	-314.2138366699219	944.5231323242188	-669.312255859375	-220.6729431152344	506.162109375	-678.0390014648438	-268.6055908203125	637.540283203125	-716.7264404296875	-387.468017578125	106.6590957641602	-808.7255249023438	-292.6380615234375	299.6710815429688	-751.8331909179688	-243.7620849609375	39.57917022705078	-667.8753051757812	-324.7112121582031	40.97116088867188	-667.4894409179688	-280.9077758789062	64.52497100830078	-767.2953491210938	-456.1313171386719	112.732048034668	-777.6668090820312	-465.9400024414062	468.8131103515625	-492.9406127929688	-468.7681884765625	725.5778198242188	-415.6004638671875	-542.5953369140625	40.9719352722168	-597.8763427734375	-454.9284057617188	346.8280334472656	-525.69970703125	-342.1363525390625	42.3018913269043	-633.4226684570312	-396.2525329589844	41.62086868286133	-677.3715209960938	-440.6155700683594	33.54414749145508	-567.7693481445312	-589.038330078125	39.04994201660156	-652.1535034179688	
205	2.04	-583.7257690429688	997.1856079101562	-548.7343139648438	-512.2939453125	985.6697998046875	-708.900146484375	-527.9278564453125	1061.056884765625	-622.0332641601562	-291.6558837890625	1235.039184570312	-531.5117797851562	-539.9070434570312	1175.852783203125	-625.4940185546875	-490.5449829101562	1421.152954101562	-620.5325317382812	-347.9357299804688	1336.954223632812	-557.2078247070312	-571.281005859375	1284.10888671875	-570.1573486328125	-465.6739501953125	1385.331176757812	-723.71630859375	-362.2683715820312	1392.48193359375	-738.9973754882812	-363.0016479492188	1278.466674804688	-820.0405883789062	-366.0267333984375	1077.080688476562	-844.190673828125	-444.6361694335938	1065.142700195312	-805.5579223632812	-321.6983032226562	845.3129272460938	-793.3573608398438	-336.8370361328125	840.2239379882812	-864.4053344726562	-358.3990173339844	971.95068359375	-857.9586791992188	-332.5771789550781	660.4366455078125	-809.7650146484375	-341.6936645507812	751.84423828125	-867.2816772460938	-303.5088195800781	746.4859619140625	-813.0028686523438	-487.8984069824219	1393.669067382812	-449.1000061035156	-511.774658203125	1332.204833984375	-388.3684692382812	-502.1065979003906	1067.07568359375	-325.4325866699219	-512.8203125	1053.239013671875	-418.9349060058594	-378.4400634765625	849.1590576171875	-332.1012573242188	-442.5763549804688	844.2340087890625	-277.2793884277344	-475.187255859375	1003.133544921875	-305.34521484375	-358.2562255859375	663.24267578125	-315.7565612792969	-350.31591796875	737.430908203125	-299.1270141601562	-413.3283081054688	735.0972900390625	-267.2733154296875	-499.1856689453125	1576.854614257812	-545.2459106445312	-290.4902038574219	1614.768920898438	-549.8280639648438	-340.5398254394531	1603.666381835938	-472.2994079589844	-419.2202758789062	1584.8251953125	-667.2817993164062	-408.9989318847656	938.3435668945312	-766.4617309570312	-533.9533081054688	944.1058349609375	-413.5282897949219	-396.1375732421875	944.9879150390625	-429.8812255859375	-304.9339294433594	944.6932373046875	-664.372802734375	-209.8207855224609	507.496826171875	-669.1876831054688	-257.4810485839844	638.32763671875	-709.5390625	-354.4341735839844	98.05103302001953	-796.2664184570312	-271.0943298339844	296.7969970703125	-741.2162475585938	-211.015380859375	41.39308929443359	-650.7037353515625	-292.0877380371094	38.57350921630859	-652.1861572265625	-246.9518890380859	62.42450332641602	-751.3563232421875	-424.2083129882812	101.2694244384766	-767.0665283203125	-464.2869262695312	468.3791198730469	-491.9798583984375	-464.8409729003906	724.8255004882812	-414.3533935546875	-542.6234130859375	41.16841125488281	-598.0636596679688	-453.7325439453125	346.3976440429688	-525.1134643554688	-342.0950317382812	42.24308013916016	-633.4429321289062	-396.1896057128906	41.53568649291992	-677.4356689453125	-440.5765686035156	33.56906127929688	-567.8587036132812	-589.005859375	39.30481338500977	-652.3377075195312	
